<svg width="105" height="12" viewBox="0 0 105 12" fill="none" xmlns="http://www.w3.org/2000/svg">
<path d="M0.56 11V0.154999H3.515C4.585 0.154999 5.495 0.319999 6.245 0.649999C7.005 0.98 7.615 1.415 8.075 1.955C8.535 2.495 8.87 3.095 9.08 3.755C9.3 4.405 9.41 5.055 9.41 5.705C9.41 6.525 9.265 7.26 8.975 7.91C8.695 8.56 8.305 9.115 7.805 9.575C7.305 10.035 6.73 10.39 6.08 10.64C5.44 10.88 4.76 11 4.04 11H0.56ZM2.015 9.605H3.755C4.355 9.605 4.905 9.515 5.405 9.335C5.915 9.155 6.355 8.895 6.725 8.555C7.105 8.215 7.4 7.8 7.61 7.31C7.82 6.81 7.925 6.245 7.925 5.615C7.925 4.945 7.815 4.36 7.595 3.86C7.375 3.35 7.075 2.925 6.695 2.585C6.315 2.245 5.885 1.99 5.405 1.82C4.925 1.64 4.42 1.55 3.89 1.55H2.015V9.605ZM14.8539 0.154999H21.9039V1.55H16.3089V4.85H21.3039V6.245H16.3089V9.605H22.1139V11H14.8539V0.154999ZM27.6391 0.154999H29.0941V9.605H34.5991V11H27.6391V0.154999ZM39.9702 0.154999H41.4252V11H39.9702V0.154999ZM55.5055 10.19C55.3255 10.31 55.0805 10.445 54.7705 10.595C54.4605 10.745 54.0955 10.87 53.6755 10.97C53.2655 11.07 52.8155 11.12 52.3255 11.12C51.4855 11.11 50.7255 10.96 50.0455 10.67C49.3755 10.38 48.8055 9.985 48.3355 9.485C47.8655 8.985 47.5005 8.41 47.2405 7.76C46.9905 7.1 46.8655 6.4 46.8655 5.66C46.8655 4.85 46.9955 4.105 47.2555 3.425C47.5255 2.735 47.9005 2.14 48.3805 1.64C48.8605 1.13 49.4255 0.735 50.0755 0.455C50.7355 0.175 51.4555 0.0349999 52.2355 0.0349999C52.8855 0.0349999 53.4755 0.125 54.0055 0.304999C54.5355 0.474999 54.9905 0.679999 55.3705 0.919999L54.7855 2.27C54.4855 2.07 54.1205 1.88 53.6905 1.7C53.2705 1.52 52.8005 1.43 52.2805 1.43C51.7505 1.43 51.2505 1.535 50.7805 1.745C50.3105 1.955 49.8955 2.25 49.5355 2.63C49.1755 3.01 48.8905 3.455 48.6805 3.965C48.4805 4.465 48.3805 5.005 48.3805 5.585C48.3805 6.175 48.4705 6.725 48.6505 7.235C48.8405 7.735 49.1055 8.17 49.4455 8.54C49.7955 8.91 50.2155 9.2 50.7055 9.41C51.1955 9.62 51.7455 9.725 52.3555 9.725C52.9055 9.725 53.3955 9.64 53.8255 9.47C54.2555 9.3 54.6105 9.11 54.8905 8.9L55.5055 10.19ZM60.9555 0.154999H62.4105V11H60.9555V0.154999ZM67.8508 5.585C67.8508 4.835 67.9908 4.13 68.2708 3.47C68.5608 2.8 68.9608 2.21 69.4708 1.7C69.9808 1.18 70.5658 0.774999 71.2258 0.484999C71.8958 0.185 72.6158 0.0349999 73.3858 0.0349999C74.1458 0.0349999 74.8558 0.185 75.5158 0.484999C76.1858 0.774999 76.7758 1.18 77.2858 1.7C77.8058 2.21 78.2108 2.8 78.5008 3.47C78.7908 4.13 78.9358 4.835 78.9358 5.585C78.9358 6.355 78.7908 7.075 78.5008 7.745C78.2108 8.415 77.8058 9.005 77.2858 9.515C76.7758 10.015 76.1858 10.41 75.5158 10.7C74.8558 10.98 74.1458 11.12 73.3858 11.12C72.6158 11.12 71.8958 10.98 71.2258 10.7C70.5658 10.42 69.9808 10.03 69.4708 9.53C68.9608 9.03 68.5608 8.445 68.2708 7.775C67.9908 7.105 67.8508 6.375 67.8508 5.585ZM69.3508 5.6C69.3508 6.17 69.4558 6.705 69.6658 7.205C69.8758 7.695 70.1658 8.13 70.5358 8.51C70.9058 8.89 71.3358 9.19 71.8258 9.41C72.3158 9.62 72.8458 9.725 73.4158 9.725C73.9758 9.725 74.5008 9.62 74.9908 9.41C75.4808 9.19 75.9058 8.89 76.2658 8.51C76.6258 8.13 76.9108 7.695 77.1208 7.205C77.3308 6.705 77.4358 6.165 77.4358 5.585C77.4358 5.015 77.3308 4.48 77.1208 3.98C76.9108 3.47 76.6208 3.025 76.2508 2.645C75.8808 2.265 75.4508 1.97 74.9608 1.76C74.4708 1.54 73.9458 1.43 73.3858 1.43C72.8158 1.43 72.2858 1.54 71.7958 1.76C71.3058 1.98 70.8758 2.28 70.5058 2.66C70.1358 3.04 69.8508 3.485 69.6508 3.995C69.4508 4.495 69.3508 5.03 69.3508 5.6ZM85.6921 7.16C85.6921 7.65 85.8071 8.09 86.0371 8.48C86.2771 8.86 86.5921 9.16 86.9821 9.38C87.3721 9.6 87.8121 9.71 88.3021 9.71C88.8121 9.71 89.2671 9.6 89.6671 9.38C90.0671 9.16 90.3821 8.86 90.6121 8.48C90.8421 8.09 90.9571 7.65 90.9571 7.16V0.154999H92.3821V7.205C92.3821 7.995 92.1971 8.685 91.8271 9.275C91.4671 9.865 90.9771 10.32 90.3571 10.64C89.7471 10.96 89.0621 11.12 88.3021 11.12C87.5421 11.12 86.8571 10.96 86.2471 10.64C85.6371 10.32 85.1521 9.865 84.7921 9.275C84.4321 8.685 84.2521 7.995 84.2521 7.205V0.154999H85.6921V7.16ZM103.969 2.09C103.599 1.9 103.194 1.735 102.754 1.595C102.314 1.455 101.884 1.385 101.464 1.385C100.884 1.385 100.419 1.52 100.069 1.79C99.7288 2.06 99.5588 2.42 99.5588 2.87C99.5588 3.21 99.6688 3.5 99.8888 3.74C100.109 3.97 100.399 4.17 100.759 4.34C101.119 4.51 101.494 4.67 101.884 4.82C102.224 4.95 102.559 5.095 102.889 5.255C103.219 5.415 103.514 5.615 103.774 5.855C104.044 6.095 104.254 6.39 104.404 6.74C104.564 7.09 104.644 7.525 104.644 8.045C104.644 8.615 104.499 9.135 104.209 9.605C103.929 10.075 103.524 10.445 102.994 10.715C102.464 10.985 101.834 11.12 101.104 11.12C100.624 11.12 100.164 11.065 99.7238 10.955C99.2938 10.845 98.8938 10.705 98.5238 10.535C98.1538 10.355 97.8238 10.17 97.5338 9.98L98.1788 8.84C98.4188 9.01 98.6938 9.175 99.0038 9.335C99.3138 9.485 99.6388 9.61 99.9788 9.71C100.319 9.8 100.649 9.845 100.969 9.845C101.309 9.845 101.644 9.785 101.974 9.665C102.314 9.535 102.594 9.34 102.814 9.08C103.034 8.82 103.144 8.475 103.144 8.045C103.144 7.675 103.044 7.37 102.844 7.13C102.654 6.88 102.399 6.67 102.079 6.5C101.759 6.32 101.419 6.16 101.059 6.02C100.719 5.89 100.374 5.75 100.024 5.6C99.6738 5.44 99.3488 5.25 99.0488 5.03C98.7488 4.8 98.5088 4.52 98.3288 4.19C98.1488 3.86 98.0588 3.46 98.0588 2.99C98.0588 2.42 98.1938 1.925 98.4638 1.505C98.7438 1.075 99.1238 0.739999 99.6038 0.499999C100.084 0.25 100.634 0.114999 101.254 0.0949991C101.954 0.0949991 102.569 0.179999 103.099 0.349999C103.639 0.52 104.114 0.73 104.524 0.979999L103.969 2.09Z" fill="#292E36"/>
</svg>
