<svg width="143" height="27" viewBox="0 0 143 27" fill="none" xmlns="http://www.w3.org/2000/svg">
<path d="M8.1983 9.155C8.7483 9.155 9.2533 9.23 9.7133 9.38C10.1833 9.52 10.5883 9.735 10.9283 10.025C11.2783 10.305 11.5483 10.655 11.7383 11.075C11.9383 11.485 12.0383 11.965 12.0383 12.515C12.0383 12.945 11.9733 13.365 11.8433 13.775C11.7233 14.185 11.5183 14.56 11.2283 14.9C10.9383 15.23 10.5583 15.5 10.0883 15.71C9.6283 15.91 9.0583 16.01 8.3783 16.01H6.7733V20H5.3183V9.155H8.1983ZM8.3483 14.615C8.7783 14.615 9.1333 14.55 9.4133 14.42C9.7033 14.29 9.9283 14.125 10.0883 13.925C10.2483 13.715 10.3633 13.49 10.4333 13.25C10.5033 13.01 10.5383 12.785 10.5383 12.575C10.5383 12.355 10.4983 12.13 10.4183 11.9C10.3483 11.66 10.2283 11.44 10.0583 11.24C9.8983 11.04 9.6833 10.875 9.4133 10.745C9.1533 10.615 8.8333 10.55 8.4533 10.55H6.7733V14.615H8.3483ZM10.1333 15.44L12.9683 20H11.2883L8.4083 15.485L10.1333 15.44ZM18.206 9.155H25.256V10.55H19.661V13.85H24.656V15.245H19.661V18.605H25.466V20H18.206V9.155ZM36.6012 11.09C36.2312 10.9 35.8262 10.735 35.3862 10.595C34.9462 10.455 34.5162 10.385 34.0962 10.385C33.5162 10.385 33.0512 10.52 32.7012 10.79C32.3612 11.06 32.1912 11.42 32.1912 11.87C32.1912 12.21 32.3012 12.5 32.5212 12.74C32.7412 12.97 33.0312 13.17 33.3912 13.34C33.7512 13.51 34.1262 13.67 34.5162 13.82C34.8562 13.95 35.1912 14.095 35.5212 14.255C35.8512 14.415 36.1462 14.615 36.4062 14.855C36.6762 15.095 36.8862 15.39 37.0362 15.74C37.1962 16.09 37.2762 16.525 37.2762 17.045C37.2762 17.615 37.1312 18.135 36.8412 18.605C36.5612 19.075 36.1562 19.445 35.6262 19.715C35.0962 19.985 34.4662 20.12 33.7362 20.12C33.2562 20.12 32.7962 20.065 32.3562 19.955C31.9262 19.845 31.5262 19.705 31.1562 19.535C30.7862 19.355 30.4562 19.17 30.1662 18.98L30.8112 17.84C31.0512 18.01 31.3262 18.175 31.6362 18.335C31.9462 18.485 32.2712 18.61 32.6112 18.71C32.9512 18.8 33.2812 18.845 33.6012 18.845C33.9412 18.845 34.2762 18.785 34.6062 18.665C34.9462 18.535 35.2262 18.34 35.4462 18.08C35.6662 17.82 35.7762 17.475 35.7762 17.045C35.7762 16.675 35.6762 16.37 35.4762 16.13C35.2862 15.88 35.0312 15.67 34.7112 15.5C34.3912 15.32 34.0512 15.16 33.6912 15.02C33.3512 14.89 33.0062 14.75 32.6562 14.6C32.3062 14.44 31.9812 14.25 31.6812 14.03C31.3812 13.8 31.1412 13.52 30.9612 13.19C30.7812 12.86 30.6912 12.46 30.6912 11.99C30.6912 11.42 30.8262 10.925 31.0962 10.505C31.3762 10.075 31.7562 9.74 32.2362 9.5C32.7162 9.25 33.2662 9.115 33.8862 9.095C34.5862 9.095 35.2012 9.18 35.7312 9.35C36.2712 9.52 36.7462 9.73 37.1562 9.98L36.6012 11.09ZM42.7216 9.155H49.7716V10.55H44.1766V13.85H49.1716V15.245H44.1766V18.605H49.9816V20H42.7216V9.155ZM58.3868 9.155C58.9368 9.155 59.4418 9.23 59.9018 9.38C60.3718 9.52 60.7768 9.735 61.1168 10.025C61.4668 10.305 61.7368 10.655 61.9268 11.075C62.1268 11.485 62.2268 11.965 62.2268 12.515C62.2268 12.945 62.1618 13.365 62.0318 13.775C61.9118 14.185 61.7068 14.56 61.4168 14.9C61.1268 15.23 60.7468 15.5 60.2768 15.71C59.8168 15.91 59.2468 16.01 58.5668 16.01H56.9618V20H55.5068V9.155H58.3868ZM58.5368 14.615C58.9668 14.615 59.3218 14.55 59.6018 14.42C59.8918 14.29 60.1168 14.125 60.2768 13.925C60.4368 13.715 60.5518 13.49 60.6218 13.25C60.6918 13.01 60.7268 12.785 60.7268 12.575C60.7268 12.355 60.6868 12.13 60.6068 11.9C60.5368 11.66 60.4168 11.44 60.2468 11.24C60.0868 11.04 59.8718 10.875 59.6018 10.745C59.3418 10.615 59.0218 10.55 58.6418 10.55H56.9618V14.615H58.5368ZM60.3218 15.44L63.1568 20H61.4768L58.5968 15.485L60.3218 15.44ZM68.7936 9.155L72.3636 18.125L71.5386 17.96L74.9286 9.155H76.6236L71.8386 20.495L67.0686 9.155H68.7936ZM79.3526 20L84.0926 8.705H84.1826L88.9076 20H87.2426L83.7026 10.985L84.7376 10.31L80.7776 20H79.3526ZM82.1276 15.89H86.1626L86.6426 17.15H81.7076L82.1276 15.89ZM92.3055 9.155H99.5055V10.55H96.5955V20H95.1405V10.55H92.3055V9.155ZM104.816 9.155H106.271V20H104.816V9.155ZM111.712 14.585C111.712 13.835 111.852 13.13 112.132 12.47C112.422 11.8 112.822 11.21 113.332 10.7C113.842 10.18 114.427 9.775 115.087 9.485C115.757 9.185 116.477 9.035 117.247 9.035C118.007 9.035 118.717 9.185 119.377 9.485C120.047 9.775 120.637 10.18 121.147 10.7C121.667 11.21 122.072 11.8 122.362 12.47C122.652 13.13 122.797 13.835 122.797 14.585C122.797 15.355 122.652 16.075 122.362 16.745C122.072 17.415 121.667 18.005 121.147 18.515C120.637 19.015 120.047 19.41 119.377 19.7C118.717 19.98 118.007 20.12 117.247 20.12C116.477 20.12 115.757 19.98 115.087 19.7C114.427 19.42 113.842 19.03 113.332 18.53C112.822 18.03 112.422 17.445 112.132 16.775C111.852 16.105 111.712 15.375 111.712 14.585ZM113.212 14.6C113.212 15.17 113.317 15.705 113.527 16.205C113.737 16.695 114.027 17.13 114.397 17.51C114.767 17.89 115.197 18.19 115.687 18.41C116.177 18.62 116.707 18.725 117.277 18.725C117.837 18.725 118.362 18.62 118.852 18.41C119.342 18.19 119.767 17.89 120.127 17.51C120.487 17.13 120.772 16.695 120.982 16.205C121.192 15.705 121.297 15.165 121.297 14.585C121.297 14.015 121.192 13.48 120.982 12.98C120.772 12.47 120.482 12.025 120.112 11.645C119.742 11.265 119.312 10.97 118.822 10.76C118.332 10.54 117.807 10.43 117.247 10.43C116.677 10.43 116.147 10.54 115.657 10.76C115.167 10.98 114.737 11.28 114.367 11.66C113.997 12.04 113.712 12.485 113.512 12.995C113.312 13.495 113.212 14.03 113.212 14.6ZM137.638 20.345L129.253 11.84L129.673 11.945L129.703 20H128.248V8.825H128.323L136.618 17.36L136.273 17.285L136.243 9.155H137.683V20.345H137.638Z" fill="white"/>
</svg>
