<svg width="56" height="27" viewBox="0 0 56 27" fill="none" xmlns="http://www.w3.org/2000/svg">
<path d="M6.58779 9.155C7.67779 9.155 8.53279 9.38 9.15279 9.83C9.78279 10.27 10.0978 10.96 10.0978 11.9C10.0978 12.47 9.96779 12.965 9.70779 13.385C9.44779 13.805 9.08279 14.135 8.61279 14.375C8.15279 14.615 7.60779 14.75 6.97779 14.78L6.76779 14.03C7.49779 14.05 8.15279 14.18 8.73279 14.42C9.31279 14.66 9.77279 14.995 10.1128 15.425C10.4528 15.855 10.6228 16.365 10.6228 16.955C10.6228 17.495 10.5228 17.96 10.3228 18.35C10.1228 18.73 9.85279 19.045 9.51279 19.295C9.17279 19.535 8.78779 19.715 8.35779 19.835C7.92779 19.945 7.48279 20 7.02279 20H3.79779V9.155H6.58779ZM6.88779 13.91C7.48779 13.91 7.92279 13.745 8.19279 13.415C8.46279 13.075 8.59779 12.665 8.59779 12.185C8.59779 11.615 8.42279 11.2 8.07279 10.94C7.72279 10.68 7.25279 10.55 6.66279 10.55H5.25279V13.91H6.88779ZM6.94779 18.65C7.34779 18.65 7.71279 18.59 8.04279 18.47C8.38279 18.35 8.64779 18.165 8.83779 17.915C9.03779 17.665 9.13779 17.35 9.13779 16.97C9.13779 16.55 9.02279 16.22 8.79279 15.98C8.57279 15.74 8.28779 15.57 7.93779 15.47C7.58779 15.36 7.22779 15.305 6.85779 15.305H5.25279V18.65H6.94779ZM16.0703 9.155H17.5253V18.605H23.0303V20H16.0703V9.155ZM27.5212 14.585C27.5212 13.835 27.6612 13.13 27.9412 12.47C28.2312 11.8 28.6312 11.21 29.1412 10.7C29.6512 10.18 30.2362 9.775 30.8962 9.485C31.5662 9.185 32.2862 9.035 33.0562 9.035C33.8162 9.035 34.5262 9.185 35.1862 9.485C35.8562 9.775 36.4462 10.18 36.9562 10.7C37.4762 11.21 37.8812 11.8 38.1712 12.47C38.4612 13.13 38.6062 13.835 38.6062 14.585C38.6062 15.355 38.4612 16.075 38.1712 16.745C37.8812 17.415 37.4762 18.005 36.9562 18.515C36.4462 19.015 35.8562 19.41 35.1862 19.7C34.5262 19.98 33.8162 20.12 33.0562 20.12C32.2862 20.12 31.5662 19.98 30.8962 19.7C30.2362 19.42 29.6512 19.03 29.1412 18.53C28.6312 18.03 28.2312 17.445 27.9412 16.775C27.6612 16.105 27.5212 15.375 27.5212 14.585ZM29.0212 14.6C29.0212 15.17 29.1262 15.705 29.3362 16.205C29.5462 16.695 29.8362 17.13 30.2062 17.51C30.5762 17.89 31.0062 18.19 31.4962 18.41C31.9862 18.62 32.5162 18.725 33.0862 18.725C33.6462 18.725 34.1712 18.62 34.6612 18.41C35.1512 18.19 35.5762 17.89 35.9362 17.51C36.2962 17.13 36.5812 16.695 36.7912 16.205C37.0012 15.705 37.1062 15.165 37.1062 14.585C37.1062 14.015 37.0012 13.48 36.7912 12.98C36.5812 12.47 36.2912 12.025 35.9212 11.645C35.5512 11.265 35.1212 10.97 34.6312 10.76C34.1412 10.54 33.6162 10.43 33.0562 10.43C32.4862 10.43 31.9562 10.54 31.4662 10.76C30.9762 10.98 30.5462 11.28 30.1762 11.66C29.8062 12.04 29.5212 12.485 29.3212 12.995C29.1212 13.495 29.0212 14.03 29.0212 14.6ZM52.5476 19.07C52.3976 19.2 52.1876 19.33 51.9176 19.46C51.6476 19.58 51.3476 19.69 51.0176 19.79C50.6976 19.89 50.3626 19.97 50.0126 20.03C49.6726 20.09 49.3526 20.12 49.0526 20.12C48.1826 20.12 47.3976 19.985 46.6976 19.715C46.0076 19.445 45.4126 19.07 44.9126 18.59C44.4226 18.11 44.0426 17.545 43.7726 16.895C43.5126 16.245 43.3826 15.54 43.3826 14.78C43.3826 13.88 43.5276 13.075 43.8176 12.365C44.1176 11.645 44.5226 11.04 45.0326 10.55C45.5526 10.05 46.1476 9.675 46.8176 9.425C47.4876 9.165 48.1976 9.035 48.9476 9.035C49.5776 9.035 50.1626 9.11 50.7026 9.26C51.2426 9.41 51.7176 9.6 52.1276 9.83L51.6326 11.165C51.4326 11.045 51.1826 10.935 50.8826 10.835C50.5926 10.735 50.2926 10.655 49.9826 10.595C49.6726 10.525 49.3826 10.49 49.1126 10.49C48.4726 10.49 47.8926 10.59 47.3726 10.79C46.8526 10.98 46.4076 11.26 46.0376 11.63C45.6676 11.99 45.3826 12.43 45.1826 12.95C44.9826 13.46 44.8826 14.035 44.8826 14.675C44.8826 15.265 44.9826 15.805 45.1826 16.295C45.3826 16.785 45.6676 17.21 46.0376 17.57C46.4076 17.92 46.8476 18.195 47.3576 18.395C47.8776 18.585 48.4476 18.68 49.0676 18.68C49.4376 18.68 49.8026 18.645 50.1626 18.575C50.5226 18.495 50.8326 18.385 51.0926 18.245V16.085H48.9326V14.69H52.5476V19.07Z" fill="#292E36"/>
</svg>
