<svg width="60" height="27" viewBox="0 0 60 27" fill="none" xmlns="http://www.w3.org/2000/svg">
<path d="M3.45404 19V7.81H3.46904L9.15404 15.88L8.53904 15.76L14.209 7.81H14.239V19H12.799V11.11L12.889 11.845L8.79404 17.635H8.76404L4.60904 11.845L4.86404 11.17V19H3.45404ZM20.3554 8.155H27.4054V9.55H21.8104V12.85H26.8054V14.245H21.8104V17.605H27.6154V19H20.3554V8.155ZM42.5306 19.345L34.1456 10.84L34.5656 10.945L34.5956 19H33.1406V7.825H33.2156L41.5106 16.36L41.1656 16.285L41.1356 8.155H42.5756V19.345H42.5306ZM49.9993 15.16C49.9993 15.65 50.1143 16.09 50.3443 16.48C50.5843 16.86 50.8993 17.16 51.2893 17.38C51.6793 17.6 52.1193 17.71 52.6093 17.71C53.1193 17.71 53.5743 17.6 53.9743 17.38C54.3743 17.16 54.6893 16.86 54.9193 16.48C55.1493 16.09 55.2643 15.65 55.2643 15.16V8.155H56.6893V15.205C56.6893 15.995 56.5043 16.685 56.1343 17.275C55.7743 17.865 55.2843 18.32 54.6643 18.64C54.0543 18.96 53.3693 19.12 52.6093 19.12C51.8493 19.12 51.1643 18.96 50.5543 18.64C49.9443 18.32 49.4593 17.865 49.0993 17.275C48.7393 16.685 48.5593 15.995 48.5593 15.205V8.155H49.9993V15.16Z" fill="#292E36"/>
</svg>
