<svg width="78" height="27" viewBox="0 0 78 27" fill="none" xmlns="http://www.w3.org/2000/svg">
<path d="M2.91967 13.585C2.91967 12.835 3.05967 12.13 3.33967 11.47C3.62967 10.8 4.02967 10.21 4.53967 9.7C5.04967 9.18 5.63467 8.775 6.29467 8.485C6.96467 8.185 7.68467 8.035 8.45467 8.035C9.21467 8.035 9.92467 8.185 10.5847 8.485C11.2547 8.775 11.8447 9.18 12.3547 9.7C12.8747 10.21 13.2797 10.8 13.5697 11.47C13.8597 12.13 14.0047 12.835 14.0047 13.585C14.0047 14.355 13.8597 15.075 13.5697 15.745C13.2797 16.415 12.8747 17.005 12.3547 17.515C11.8447 18.015 11.2547 18.41 10.5847 18.7C9.92467 18.98 9.21467 19.12 8.45467 19.12C7.68467 19.12 6.96467 18.98 6.29467 18.7C5.63467 18.42 5.04967 18.03 4.53967 17.53C4.02967 17.03 3.62967 16.445 3.33967 15.775C3.05967 15.105 2.91967 14.375 2.91967 13.585ZM4.41967 13.6C4.41967 14.17 4.52467 14.705 4.73467 15.205C4.94467 15.695 5.23467 16.13 5.60467 16.51C5.97467 16.89 6.40467 17.19 6.89467 17.41C7.38467 17.62 7.91467 17.725 8.48467 17.725C9.04467 17.725 9.56967 17.62 10.0597 17.41C10.5497 17.19 10.9747 16.89 11.3347 16.51C11.6947 16.13 11.9797 15.695 12.1897 15.205C12.3997 14.705 12.5047 14.165 12.5047 13.585C12.5047 13.015 12.3997 12.48 12.1897 11.98C11.9797 11.47 11.6897 11.025 11.3197 10.645C10.9497 10.265 10.5197 9.97 10.0297 9.76C9.53967 9.54 9.01467 9.43 8.45467 9.43C7.88467 9.43 7.35467 9.54 6.86467 9.76C6.37467 9.98 5.94467 10.28 5.57467 10.66C5.20467 11.04 4.91967 11.485 4.71967 11.995C4.51967 12.495 4.41967 13.03 4.41967 13.6ZM19.456 8.155H25.891V9.55H20.911V13.015H25.276V14.395H20.911V19H19.456V8.155ZM31.289 8.155H37.724V9.55H32.744V13.015H37.109V14.395H32.744V19H31.289V8.155ZM43.122 8.155H50.172V9.55H44.577V12.85H49.572V14.245H44.577V17.605H50.382V19H43.122V8.155ZM58.7872 8.155C59.3372 8.155 59.8422 8.23 60.3022 8.38C60.7722 8.52 61.1772 8.735 61.5172 9.025C61.8672 9.305 62.1372 9.655 62.3272 10.075C62.5272 10.485 62.6272 10.965 62.6272 11.515C62.6272 11.945 62.5622 12.365 62.4322 12.775C62.3122 13.185 62.1072 13.56 61.8172 13.9C61.5272 14.23 61.1472 14.5 60.6772 14.71C60.2172 14.91 59.6472 15.01 58.9672 15.01H57.3622V19H55.9072V8.155H58.7872ZM58.9372 13.615C59.3672 13.615 59.7222 13.55 60.0022 13.42C60.2922 13.29 60.5172 13.125 60.6772 12.925C60.8372 12.715 60.9522 12.49 61.0222 12.25C61.0922 12.01 61.1272 11.785 61.1272 11.575C61.1272 11.355 61.0872 11.13 61.0072 10.9C60.9372 10.66 60.8172 10.44 60.6472 10.24C60.4872 10.04 60.2722 9.875 60.0022 9.745C59.7422 9.615 59.4222 9.55 59.0422 9.55H57.3622V13.615H58.9372ZM60.7222 14.44L63.5572 19H61.8772L58.9972 14.485L60.7222 14.44ZM74.4049 10.09C74.0349 9.9 73.6299 9.735 73.1899 9.595C72.7499 9.455 72.3199 9.385 71.8999 9.385C71.3199 9.385 70.8549 9.52 70.5049 9.79C70.1649 10.06 69.9949 10.42 69.9949 10.87C69.9949 11.21 70.1049 11.5 70.3249 11.74C70.5449 11.97 70.8349 12.17 71.1949 12.34C71.5549 12.51 71.9299 12.67 72.3199 12.82C72.6599 12.95 72.9949 13.095 73.3249 13.255C73.6549 13.415 73.9499 13.615 74.2099 13.855C74.4799 14.095 74.6899 14.39 74.8399 14.74C74.9999 15.09 75.0799 15.525 75.0799 16.045C75.0799 16.615 74.9349 17.135 74.6449 17.605C74.3649 18.075 73.9599 18.445 73.4299 18.715C72.8999 18.985 72.2699 19.12 71.5399 19.12C71.0599 19.12 70.5999 19.065 70.1599 18.955C69.7299 18.845 69.3299 18.705 68.9599 18.535C68.5899 18.355 68.2599 18.17 67.9699 17.98L68.6149 16.84C68.8549 17.01 69.1299 17.175 69.4399 17.335C69.7499 17.485 70.0749 17.61 70.4149 17.71C70.7549 17.8 71.0849 17.845 71.4049 17.845C71.7449 17.845 72.0799 17.785 72.4099 17.665C72.7499 17.535 73.0299 17.34 73.2499 17.08C73.4699 16.82 73.5799 16.475 73.5799 16.045C73.5799 15.675 73.4799 15.37 73.2799 15.13C73.0899 14.88 72.8349 14.67 72.5149 14.5C72.1949 14.32 71.8549 14.16 71.4949 14.02C71.1549 13.89 70.8099 13.75 70.4599 13.6C70.1099 13.44 69.7849 13.25 69.4849 13.03C69.1849 12.8 68.9449 12.52 68.7649 12.19C68.5849 11.86 68.4949 11.46 68.4949 10.99C68.4949 10.42 68.6299 9.925 68.8999 9.505C69.1799 9.075 69.5599 8.74 70.0399 8.5C70.5199 8.25 71.0699 8.115 71.6899 8.095C72.3899 8.095 73.0049 8.18 73.5349 8.35C74.0749 8.52 74.5499 8.73 74.9599 8.98L74.4049 10.09Z" fill="#292E36"/>
</svg>
