<svg width="172" height="27" viewBox="0 0 172 27" fill="none" xmlns="http://www.w3.org/2000/svg">
<path d="M0.615 9.215H2.295L5.235 17.495L4.98 17.39L7.125 11.84L7.8 13.805L4.935 20.495L0.615 9.215ZM5.82 9.215H7.275L10.455 17.375L10.155 17.315L12.96 9.215H14.505L10.245 20.48L5.82 9.215ZM28.2572 9.155V20H26.8172V15.245H21.1322V20H19.6772V9.155H21.1322V13.865H26.8172V9.155H28.2572ZM33.3013 20L38.0413 8.705H38.1313L42.8563 20H41.1913L37.6513 10.985L38.6863 10.31L34.7263 20H33.3013ZM36.0763 15.89H40.1113L40.5913 17.15H35.6563L36.0763 15.89ZM46.2543 9.155H53.4543V10.55H50.5443V20H49.0893V10.55H46.2543V9.155ZM65.5662 9.215H67.2462L70.1862 17.495L69.9312 17.39L72.0762 11.84L72.7512 13.805L69.8862 20.495L65.5662 9.215ZM70.7712 9.215H72.2262L75.4062 17.375L75.1062 17.315L77.9112 9.215H79.4562L75.1962 20.48L70.7712 9.215ZM84.6284 9.155H91.6784V10.55H86.0834V13.85H91.0784V15.245H86.0834V18.605H91.8884V20H84.6284V9.155ZM104.485 14.585C104.485 13.835 104.625 13.13 104.905 12.47C105.195 11.8 105.595 11.21 106.105 10.7C106.615 10.18 107.2 9.775 107.86 9.485C108.53 9.185 109.25 9.035 110.02 9.035C110.78 9.035 111.49 9.185 112.15 9.485C112.82 9.775 113.41 10.18 113.92 10.7C114.44 11.21 114.845 11.8 115.135 12.47C115.425 13.13 115.57 13.835 115.57 14.585C115.57 15.355 115.425 16.075 115.135 16.745C114.845 17.415 114.44 18.005 113.92 18.515C113.41 19.015 112.82 19.41 112.15 19.7C111.49 19.98 110.78 20.12 110.02 20.12C109.25 20.12 108.53 19.98 107.86 19.7C107.2 19.42 106.615 19.03 106.105 18.53C105.595 18.03 105.195 17.445 104.905 16.775C104.625 16.105 104.485 15.375 104.485 14.585ZM105.985 14.6C105.985 15.17 106.09 15.705 106.3 16.205C106.51 16.695 106.8 17.13 107.17 17.51C107.54 17.89 107.97 18.19 108.46 18.41C108.95 18.62 109.48 18.725 110.05 18.725C110.61 18.725 111.135 18.62 111.625 18.41C112.115 18.19 112.54 17.89 112.9 17.51C113.26 17.13 113.545 16.695 113.755 16.205C113.965 15.705 114.07 15.165 114.07 14.585C114.07 14.015 113.965 13.48 113.755 12.98C113.545 12.47 113.255 12.025 112.885 11.645C112.515 11.265 112.085 10.97 111.595 10.76C111.105 10.54 110.58 10.43 110.02 10.43C109.45 10.43 108.92 10.54 108.43 10.76C107.94 10.98 107.51 11.28 107.14 11.66C106.77 12.04 106.485 12.485 106.285 12.995C106.085 13.495 105.985 14.03 105.985 14.6ZM121.021 9.155H127.456V10.55H122.476V14.015H126.841V15.395H122.476V20H121.021V9.155ZM132.854 9.155H139.289V10.55H134.309V14.015H138.674V15.395H134.309V20H132.854V9.155ZM144.687 9.155H151.737V10.55H146.142V13.85H151.137V15.245H146.142V18.605H151.947V20H144.687V9.155ZM160.352 9.155C160.902 9.155 161.407 9.23 161.867 9.38C162.337 9.52 162.742 9.735 163.082 10.025C163.432 10.305 163.702 10.655 163.892 11.075C164.092 11.485 164.192 11.965 164.192 12.515C164.192 12.945 164.127 13.365 163.997 13.775C163.877 14.185 163.672 14.56 163.382 14.9C163.092 15.23 162.712 15.5 162.242 15.71C161.782 15.91 161.212 16.01 160.532 16.01H158.927V20H157.472V9.155H160.352ZM160.502 14.615C160.932 14.615 161.287 14.55 161.567 14.42C161.857 14.29 162.082 14.125 162.242 13.925C162.402 13.715 162.517 13.49 162.587 13.25C162.657 13.01 162.692 12.785 162.692 12.575C162.692 12.355 162.652 12.13 162.572 11.9C162.502 11.66 162.382 11.44 162.212 11.24C162.052 11.04 161.837 10.875 161.567 10.745C161.307 10.615 160.987 10.55 160.607 10.55H158.927V14.615H160.502ZM162.287 15.44L165.122 20H163.442L160.562 15.485L162.287 15.44Z" fill="white"/>
</svg>
