<svg width="110" height="30" viewBox="0 0 110 30" fill="none" xmlns="http://www.w3.org/2000/svg">
<path d="M1.56 22V11.155H4.515C5.585 11.155 6.495 11.32 7.245 11.65C8.005 11.98 8.615 12.415 9.075 12.955C9.535 13.495 9.87 14.095 10.08 14.755C10.3 15.405 10.41 16.055 10.41 16.705C10.41 17.525 10.265 18.26 9.975 18.91C9.695 19.56 9.305 20.115 8.805 20.575C8.305 21.035 7.73 21.39 7.08 21.64C6.44 21.88 5.76 22 5.04 22H1.56ZM3.015 20.605H4.755C5.355 20.605 5.905 20.515 6.405 20.335C6.915 20.155 7.355 19.895 7.725 19.555C8.105 19.215 8.4 18.8 8.61 18.31C8.82 17.81 8.925 17.245 8.925 16.615C8.925 15.945 8.815 15.36 8.595 14.86C8.375 14.35 8.075 13.925 7.695 13.585C7.315 13.245 6.885 12.99 6.405 12.82C5.925 12.64 5.42 12.55 4.89 12.55H3.015V20.605ZM15.8539 11.155H22.9039V12.55H17.3089V15.85H22.3039V17.245H17.3089V20.605H23.1139V22H15.8539V11.155ZM28.6391 11.155H30.0941V20.605H35.5991V22H28.6391V11.155ZM40.9702 11.155H42.4252V22H40.9702V11.155ZM56.5055 21.19C56.3255 21.31 56.0805 21.445 55.7705 21.595C55.4605 21.745 55.0955 21.87 54.6755 21.97C54.2655 22.07 53.8155 22.12 53.3255 22.12C52.4855 22.11 51.7255 21.96 51.0455 21.67C50.3755 21.38 49.8055 20.985 49.3355 20.485C48.8655 19.985 48.5005 19.41 48.2405 18.76C47.9905 18.1 47.8655 17.4 47.8655 16.66C47.8655 15.85 47.9955 15.105 48.2555 14.425C48.5255 13.735 48.9005 13.14 49.3805 12.64C49.8605 12.13 50.4255 11.735 51.0755 11.455C51.7355 11.175 52.4555 11.035 53.2355 11.035C53.8855 11.035 54.4755 11.125 55.0055 11.305C55.5355 11.475 55.9905 11.68 56.3705 11.92L55.7855 13.27C55.4855 13.07 55.1205 12.88 54.6905 12.7C54.2705 12.52 53.8005 12.43 53.2805 12.43C52.7505 12.43 52.2505 12.535 51.7805 12.745C51.3105 12.955 50.8955 13.25 50.5355 13.63C50.1755 14.01 49.8905 14.455 49.6805 14.965C49.4805 15.465 49.3805 16.005 49.3805 16.585C49.3805 17.175 49.4705 17.725 49.6505 18.235C49.8405 18.735 50.1055 19.17 50.4455 19.54C50.7955 19.91 51.2155 20.2 51.7055 20.41C52.1955 20.62 52.7455 20.725 53.3555 20.725C53.9055 20.725 54.3955 20.64 54.8255 20.47C55.2555 20.3 55.6105 20.11 55.8905 19.9L56.5055 21.19ZM61.9555 11.155H63.4105V22H61.9555V11.155ZM68.8508 16.585C68.8508 15.835 68.9908 15.13 69.2708 14.47C69.5608 13.8 69.9608 13.21 70.4708 12.7C70.9808 12.18 71.5658 11.775 72.2258 11.485C72.8958 11.185 73.6158 11.035 74.3858 11.035C75.1458 11.035 75.8558 11.185 76.5158 11.485C77.1858 11.775 77.7758 12.18 78.2858 12.7C78.8058 13.21 79.2108 13.8 79.5008 14.47C79.7908 15.13 79.9358 15.835 79.9358 16.585C79.9358 17.355 79.7908 18.075 79.5008 18.745C79.2108 19.415 78.8058 20.005 78.2858 20.515C77.7758 21.015 77.1858 21.41 76.5158 21.7C75.8558 21.98 75.1458 22.12 74.3858 22.12C73.6158 22.12 72.8958 21.98 72.2258 21.7C71.5658 21.42 70.9808 21.03 70.4708 20.53C69.9608 20.03 69.5608 19.445 69.2708 18.775C68.9908 18.105 68.8508 17.375 68.8508 16.585ZM70.3508 16.6C70.3508 17.17 70.4558 17.705 70.6658 18.205C70.8758 18.695 71.1658 19.13 71.5358 19.51C71.9058 19.89 72.3358 20.19 72.8258 20.41C73.3158 20.62 73.8458 20.725 74.4158 20.725C74.9758 20.725 75.5008 20.62 75.9908 20.41C76.4808 20.19 76.9058 19.89 77.2658 19.51C77.6258 19.13 77.9108 18.695 78.1208 18.205C78.3308 17.705 78.4358 17.165 78.4358 16.585C78.4358 16.015 78.3308 15.48 78.1208 14.98C77.9108 14.47 77.6208 14.025 77.2508 13.645C76.8808 13.265 76.4508 12.97 75.9608 12.76C75.4708 12.54 74.9458 12.43 74.3858 12.43C73.8158 12.43 73.2858 12.54 72.7958 12.76C72.3058 12.98 71.8758 13.28 71.5058 13.66C71.1358 14.04 70.8508 14.485 70.6508 14.995C70.4508 15.495 70.3508 16.03 70.3508 16.6ZM86.6921 18.16C86.6921 18.65 86.8071 19.09 87.0371 19.48C87.2771 19.86 87.5921 20.16 87.9821 20.38C88.3721 20.6 88.8121 20.71 89.3021 20.71C89.8121 20.71 90.2671 20.6 90.6671 20.38C91.0671 20.16 91.3821 19.86 91.6121 19.48C91.8421 19.09 91.9571 18.65 91.9571 18.16V11.155H93.3821V18.205C93.3821 18.995 93.1971 19.685 92.8271 20.275C92.4671 20.865 91.9771 21.32 91.3571 21.64C90.7471 21.96 90.0621 22.12 89.3021 22.12C88.5421 22.12 87.8571 21.96 87.2471 21.64C86.6371 21.32 86.1521 20.865 85.7921 20.275C85.4321 19.685 85.2521 18.995 85.2521 18.205V11.155H86.6921V18.16ZM104.969 13.09C104.599 12.9 104.194 12.735 103.754 12.595C103.314 12.455 102.884 12.385 102.464 12.385C101.884 12.385 101.419 12.52 101.069 12.79C100.729 13.06 100.559 13.42 100.559 13.87C100.559 14.21 100.669 14.5 100.889 14.74C101.109 14.97 101.399 15.17 101.759 15.34C102.119 15.51 102.494 15.67 102.884 15.82C103.224 15.95 103.559 16.095 103.889 16.255C104.219 16.415 104.514 16.615 104.774 16.855C105.044 17.095 105.254 17.39 105.404 17.74C105.564 18.09 105.644 18.525 105.644 19.045C105.644 19.615 105.499 20.135 105.209 20.605C104.929 21.075 104.524 21.445 103.994 21.715C103.464 21.985 102.834 22.12 102.104 22.12C101.624 22.12 101.164 22.065 100.724 21.955C100.294 21.845 99.8938 21.705 99.5238 21.535C99.1538 21.355 98.8238 21.17 98.5338 20.98L99.1788 19.84C99.4188 20.01 99.6938 20.175 100.004 20.335C100.314 20.485 100.639 20.61 100.979 20.71C101.319 20.8 101.649 20.845 101.969 20.845C102.309 20.845 102.644 20.785 102.974 20.665C103.314 20.535 103.594 20.34 103.814 20.08C104.034 19.82 104.144 19.475 104.144 19.045C104.144 18.675 104.044 18.37 103.844 18.13C103.654 17.88 103.399 17.67 103.079 17.5C102.759 17.32 102.419 17.16 102.059 17.02C101.719 16.89 101.374 16.75 101.024 16.6C100.674 16.44 100.349 16.25 100.049 16.03C99.7488 15.8 99.5088 15.52 99.3288 15.19C99.1488 14.86 99.0588 14.46 99.0588 13.99C99.0588 13.42 99.1938 12.925 99.4638 12.505C99.7438 12.075 100.124 11.74 100.604 11.5C101.084 11.25 101.634 11.115 102.254 11.095C102.954 11.095 103.569 11.18 104.099 11.35C104.639 11.52 105.114 11.73 105.524 11.98L104.969 13.09Z" fill="#292E36"/>
</svg>
