<svg width="165" height="29" viewBox="0 0 165 29" fill="none" xmlns="http://www.w3.org/2000/svg">
<path d="M1.56 20V8.81H1.575L7.26 16.88L6.645 16.76L12.315 8.81H12.345V20H10.905V12.11L10.995 12.845L6.9 18.635H6.87L2.715 12.845L2.97 12.17V20H1.56ZM17.3814 20L22.1214 8.705H22.2114L26.9364 20H25.2714L21.7314 10.985L22.7664 10.31L18.8064 20H17.3814ZM20.1564 15.89H24.1914L24.6714 17.15H19.7364L20.1564 15.89ZM34.8589 9.155C35.4089 9.155 35.9139 9.23 36.3739 9.38C36.8439 9.52 37.2489 9.735 37.5889 10.025C37.9389 10.305 38.2089 10.655 38.3989 11.075C38.5989 11.485 38.6989 11.965 38.6989 12.515C38.6989 12.945 38.6339 13.365 38.5039 13.775C38.3839 14.185 38.1789 14.56 37.8889 14.9C37.5989 15.23 37.2189 15.5 36.7489 15.71C36.2889 15.91 35.7189 16.01 35.0389 16.01H33.4339V20H31.9789V9.155H34.8589ZM35.0089 14.615C35.4389 14.615 35.7939 14.55 36.0739 14.42C36.3639 14.29 36.5889 14.125 36.7489 13.925C36.9089 13.715 37.0239 13.49 37.0939 13.25C37.1639 13.01 37.1989 12.785 37.1989 12.575C37.1989 12.355 37.1589 12.13 37.0789 11.9C37.0089 11.66 36.8889 11.44 36.7189 11.24C36.5589 11.04 36.3439 10.875 36.0739 10.745C35.8139 10.615 35.4939 10.55 35.1139 10.55H33.4339V14.615H35.0089ZM36.7939 15.44L39.6289 20H37.9489L35.0689 15.485L36.7939 15.44ZM52.5973 19.19C52.4173 19.31 52.1723 19.445 51.8623 19.595C51.5523 19.745 51.1873 19.87 50.7673 19.97C50.3573 20.07 49.9073 20.12 49.4173 20.12C48.5773 20.11 47.8173 19.96 47.1373 19.67C46.4673 19.38 45.8973 18.985 45.4273 18.485C44.9573 17.985 44.5923 17.41 44.3323 16.76C44.0823 16.1 43.9573 15.4 43.9573 14.66C43.9573 13.85 44.0873 13.105 44.3473 12.425C44.6173 11.735 44.9923 11.14 45.4723 10.64C45.9523 10.13 46.5173 9.735 47.1673 9.455C47.8273 9.175 48.5473 9.035 49.3273 9.035C49.9773 9.035 50.5673 9.125 51.0973 9.305C51.6273 9.475 52.0823 9.68 52.4623 9.92L51.8773 11.27C51.5773 11.07 51.2123 10.88 50.7823 10.7C50.3623 10.52 49.8923 10.43 49.3723 10.43C48.8423 10.43 48.3423 10.535 47.8723 10.745C47.4023 10.955 46.9873 11.25 46.6273 11.63C46.2673 12.01 45.9823 12.455 45.7723 12.965C45.5723 13.465 45.4723 14.005 45.4723 14.585C45.4723 15.175 45.5623 15.725 45.7423 16.235C45.9323 16.735 46.1973 17.17 46.5373 17.54C46.8873 17.91 47.3073 18.2 47.7973 18.41C48.2873 18.62 48.8373 18.725 49.4473 18.725C49.9973 18.725 50.4873 18.64 50.9173 18.47C51.3473 18.3 51.7023 18.11 51.9823 17.9L52.5973 19.19ZM66.6273 9.155V20H65.1873V15.245H59.5023V20H58.0473V9.155H59.5023V13.865H65.1873V9.155H66.6273ZM79.7325 10.13H82.3125V20H80.8575V11.525H79.7325V10.13ZM90.414 16.76C89.904 16.76 89.424 16.625 88.974 16.355C88.524 16.085 88.154 15.715 87.864 15.245C87.584 14.765 87.444 14.225 87.444 13.625C87.444 12.925 87.604 12.32 87.924 11.81C88.254 11.29 88.679 10.89 89.199 10.61C89.719 10.33 90.279 10.19 90.879 10.19C91.549 10.19 92.149 10.335 92.679 10.625C93.219 10.915 93.644 11.32 93.954 11.84C94.274 12.36 94.434 12.96 94.434 13.64C94.434 14.42 94.284 15.13 93.984 15.77C93.694 16.41 93.309 16.995 92.829 17.525C92.349 18.045 91.819 18.525 91.239 18.965C90.659 19.395 90.079 19.805 89.499 20.195L88.539 19.13C89.369 18.7 90.089 18.25 90.699 17.78C91.309 17.31 91.789 16.84 92.139 16.37C92.489 15.89 92.694 15.44 92.754 15.02L93.174 15.035C92.874 15.595 92.514 16.025 92.094 16.325C91.684 16.615 91.124 16.76 90.414 16.76ZM90.939 15.53C91.529 15.53 92.009 15.36 92.379 15.02C92.759 14.68 92.949 14.24 92.949 13.7V13.43C92.939 13.06 92.844 12.73 92.664 12.44C92.484 12.15 92.244 11.92 91.944 11.75C91.644 11.58 91.309 11.495 90.939 11.495C90.569 11.495 90.229 11.58 89.919 11.75C89.619 11.92 89.379 12.16 89.199 12.47C89.029 12.77 88.944 13.125 88.944 13.535C88.944 13.935 89.034 14.29 89.214 14.6C89.394 14.9 89.634 15.13 89.934 15.29C90.234 15.45 90.569 15.53 90.939 15.53ZM100.406 18.695C100.186 19.215 99.9657 19.73 99.7457 20.24C99.5357 20.76 99.3207 21.285 99.1007 21.815H97.9757C98.1757 21.285 98.3707 20.76 98.5607 20.24C98.7507 19.73 98.9457 19.215 99.1457 18.695H100.406ZM112.519 20C113.159 19.38 113.769 18.77 114.349 18.17C114.929 17.57 115.449 16.99 115.909 16.43C116.379 15.87 116.749 15.33 117.019 14.81C117.289 14.28 117.424 13.77 117.424 13.28C117.424 12.95 117.369 12.67 117.259 12.44C117.149 12.2 117.004 12.005 116.824 11.855C116.654 11.705 116.459 11.595 116.239 11.525C116.019 11.445 115.794 11.405 115.564 11.405C115.234 11.405 114.954 11.46 114.724 11.57C114.494 11.67 114.304 11.805 114.154 11.975C114.014 12.145 113.909 12.325 113.839 12.515C113.779 12.705 113.749 12.895 113.749 13.085C113.749 13.415 113.799 13.715 113.899 13.985C113.999 14.245 114.144 14.475 114.334 14.675L113.434 15.47C113.204 15.32 113.004 15.11 112.834 14.84C112.674 14.57 112.549 14.28 112.459 13.97C112.379 13.65 112.339 13.365 112.339 13.115C112.339 12.575 112.469 12.07 112.729 11.6C112.999 11.12 113.389 10.735 113.899 10.445C114.419 10.155 115.049 10.01 115.789 10.01C116.419 10.01 116.969 10.155 117.439 10.445C117.909 10.735 118.274 11.12 118.534 11.6C118.794 12.07 118.924 12.59 118.924 13.16C118.924 13.66 118.824 14.15 118.624 14.63C118.424 15.11 118.154 15.585 117.814 16.055C117.484 16.525 117.114 16.99 116.704 17.45C116.304 17.9 115.904 18.355 115.504 18.815L114.874 18.605H119.254V20H112.519ZM127.577 20.045C126.967 20.045 126.407 19.93 125.897 19.7C125.387 19.47 124.947 19.14 124.577 18.71C124.217 18.27 123.937 17.74 123.737 17.12C123.537 16.5 123.437 15.805 123.437 15.035C123.437 14.195 123.532 13.465 123.722 12.845C123.912 12.215 124.187 11.69 124.547 11.27C124.917 10.85 125.357 10.54 125.867 10.34C126.377 10.13 126.947 10.025 127.577 10.025C128.187 10.025 128.742 10.14 129.242 10.37C129.752 10.6 130.187 10.935 130.547 11.375C130.917 11.805 131.202 12.33 131.402 12.95C131.612 13.56 131.717 14.255 131.717 15.035C131.717 15.825 131.612 16.53 131.402 17.15C131.202 17.77 130.917 18.295 130.547 18.725C130.187 19.155 129.752 19.485 129.242 19.715C128.742 19.935 128.187 20.045 127.577 20.045ZM127.562 18.65C128.142 18.65 128.627 18.5 129.017 18.2C129.417 17.89 129.717 17.46 129.917 16.91C130.117 16.36 130.217 15.725 130.217 15.005C130.217 14.285 130.117 13.66 129.917 13.13C129.717 12.59 129.417 12.17 129.017 11.87C128.627 11.57 128.142 11.42 127.562 11.42C126.982 11.42 126.497 11.575 126.107 11.885C125.717 12.185 125.422 12.605 125.222 13.145C125.032 13.685 124.937 14.315 124.937 15.035C124.937 15.745 125.032 16.375 125.222 16.925C125.422 17.465 125.717 17.89 126.107 18.2C126.497 18.5 126.982 18.65 127.562 18.65ZM136.038 20C136.678 19.38 137.288 18.77 137.868 18.17C138.448 17.57 138.968 16.99 139.428 16.43C139.898 15.87 140.268 15.33 140.538 14.81C140.808 14.28 140.943 13.77 140.943 13.28C140.943 12.95 140.888 12.67 140.778 12.44C140.668 12.2 140.523 12.005 140.343 11.855C140.173 11.705 139.978 11.595 139.758 11.525C139.538 11.445 139.313 11.405 139.083 11.405C138.753 11.405 138.473 11.46 138.243 11.57C138.013 11.67 137.823 11.805 137.673 11.975C137.533 12.145 137.428 12.325 137.358 12.515C137.298 12.705 137.268 12.895 137.268 13.085C137.268 13.415 137.318 13.715 137.418 13.985C137.518 14.245 137.663 14.475 137.853 14.675L136.953 15.47C136.723 15.32 136.523 15.11 136.353 14.84C136.193 14.57 136.068 14.28 135.978 13.97C135.898 13.65 135.858 13.365 135.858 13.115C135.858 12.575 135.988 12.07 136.248 11.6C136.518 11.12 136.908 10.735 137.418 10.445C137.938 10.155 138.568 10.01 139.308 10.01C139.938 10.01 140.488 10.155 140.958 10.445C141.428 10.735 141.793 11.12 142.053 11.6C142.313 12.07 142.443 12.59 142.443 13.16C142.443 13.66 142.343 14.15 142.143 14.63C141.943 15.11 141.673 15.585 141.333 16.055C141.003 16.525 140.633 16.99 140.223 17.45C139.823 17.9 139.423 18.355 139.023 18.815L138.393 18.605H142.773V20H136.038ZM147.212 20C147.852 19.38 148.462 18.77 149.042 18.17C149.622 17.57 150.142 16.99 150.602 16.43C151.072 15.87 151.442 15.33 151.712 14.81C151.982 14.28 152.117 13.77 152.117 13.28C152.117 12.95 152.062 12.67 151.952 12.44C151.842 12.2 151.697 12.005 151.517 11.855C151.347 11.705 151.152 11.595 150.932 11.525C150.712 11.445 150.487 11.405 150.257 11.405C149.927 11.405 149.647 11.46 149.417 11.57C149.187 11.67 148.997 11.805 148.847 11.975C148.707 12.145 148.602 12.325 148.532 12.515C148.472 12.705 148.442 12.895 148.442 13.085C148.442 13.415 148.492 13.715 148.592 13.985C148.692 14.245 148.837 14.475 149.027 14.675L148.127 15.47C147.897 15.32 147.697 15.11 147.527 14.84C147.367 14.57 147.242 14.28 147.152 13.97C147.072 13.65 147.032 13.365 147.032 13.115C147.032 12.575 147.162 12.07 147.422 11.6C147.692 11.12 148.082 10.735 148.592 10.445C149.112 10.155 149.742 10.01 150.482 10.01C151.112 10.01 151.662 10.155 152.132 10.445C152.602 10.735 152.967 11.12 153.227 11.6C153.487 12.07 153.617 12.59 153.617 13.16C153.617 13.66 153.517 14.15 153.317 14.63C153.117 15.11 152.847 15.585 152.507 16.055C152.177 16.525 151.807 16.99 151.397 17.45C150.997 17.9 150.597 18.355 150.197 18.815L149.567 18.605H153.947V20H147.212Z" fill="#292E36"/>
</svg>
