<svg width="153" height="14" viewBox="0 0 153 14" fill="none" xmlns="http://www.w3.org/2000/svg">
<path d="M0.56 12V0.809999H0.575L6.26 8.88L5.645 8.76L11.315 0.809999H11.345V12H9.905V4.11L9.995 4.845L5.9 10.635H5.87L1.715 4.845L1.97 4.17V12H0.56ZM16.3814 12L21.1214 0.705H21.2114L25.9364 12H24.2714L20.7314 2.985L21.7664 2.31L17.8064 12H16.3814ZM19.1564 7.89H23.1914L23.6714 9.15H18.7364L19.1564 7.89ZM33.8589 1.155C34.4089 1.155 34.9139 1.23 35.3739 1.38C35.8439 1.52 36.2489 1.735 36.5889 2.025C36.9389 2.305 37.2089 2.655 37.3989 3.075C37.5989 3.485 37.6989 3.965 37.6989 4.515C37.6989 4.945 37.6339 5.365 37.5039 5.775C37.3839 6.185 37.1789 6.56 36.8889 6.9C36.5989 7.23 36.2189 7.5 35.7489 7.71C35.2889 7.91 34.7189 8.01 34.0389 8.01H32.4339V12H30.9789V1.155H33.8589ZM34.0089 6.615C34.4389 6.615 34.7939 6.55 35.0739 6.42C35.3639 6.29 35.5889 6.125 35.7489 5.925C35.9089 5.715 36.0239 5.49 36.0939 5.25C36.1639 5.01 36.1989 4.785 36.1989 4.575C36.1989 4.355 36.1589 4.13 36.0789 3.9C36.0089 3.66 35.8889 3.44 35.7189 3.24C35.5589 3.04 35.3439 2.875 35.0739 2.745C34.8139 2.615 34.4939 2.55 34.1139 2.55H32.4339V6.615H34.0089ZM35.7939 7.44L38.6289 12H36.9489L34.0689 7.485L35.7939 7.44ZM51.5973 11.19C51.4173 11.31 51.1723 11.445 50.8623 11.595C50.5523 11.745 50.1873 11.87 49.7673 11.97C49.3573 12.07 48.9073 12.12 48.4173 12.12C47.5773 12.11 46.8173 11.96 46.1373 11.67C45.4673 11.38 44.8973 10.985 44.4273 10.485C43.9573 9.985 43.5923 9.41 43.3323 8.76C43.0823 8.1 42.9573 7.4 42.9573 6.66C42.9573 5.85 43.0873 5.105 43.3473 4.425C43.6173 3.735 43.9923 3.14 44.4723 2.64C44.9523 2.13 45.5173 1.735 46.1673 1.455C46.8273 1.175 47.5473 1.035 48.3273 1.035C48.9773 1.035 49.5673 1.125 50.0973 1.305C50.6273 1.475 51.0823 1.68 51.4623 1.92L50.8773 3.27C50.5773 3.07 50.2123 2.88 49.7823 2.7C49.3623 2.52 48.8923 2.43 48.3723 2.43C47.8423 2.43 47.3423 2.535 46.8723 2.745C46.4023 2.955 45.9873 3.25 45.6273 3.63C45.2673 4.01 44.9823 4.455 44.7723 4.965C44.5723 5.465 44.4723 6.005 44.4723 6.585C44.4723 7.175 44.5623 7.725 44.7423 8.235C44.9323 8.735 45.1973 9.17 45.5373 9.54C45.8873 9.91 46.3073 10.2 46.7973 10.41C47.2873 10.62 47.8373 10.725 48.4473 10.725C48.9973 10.725 49.4873 10.64 49.9173 10.47C50.3473 10.3 50.7023 10.11 50.9823 9.9L51.5973 11.19ZM65.6273 1.155V12H64.1873V7.245H58.5023V12H57.0473V1.155H58.5023V5.865H64.1873V1.155H65.6273ZM78.7325 2.13H81.3125V12H79.8575V3.525H78.7325V2.13ZM89.414 8.76C88.904 8.76 88.424 8.625 87.974 8.355C87.524 8.085 87.154 7.715 86.864 7.245C86.584 6.765 86.444 6.225 86.444 5.625C86.444 4.925 86.604 4.32 86.924 3.81C87.254 3.29 87.679 2.89 88.199 2.61C88.719 2.33 89.279 2.19 89.879 2.19C90.549 2.19 91.149 2.335 91.679 2.625C92.219 2.915 92.644 3.32 92.954 3.84C93.274 4.36 93.434 4.96 93.434 5.64C93.434 6.42 93.284 7.13 92.984 7.77C92.694 8.41 92.309 8.995 91.829 9.525C91.349 10.045 90.819 10.525 90.239 10.965C89.659 11.395 89.079 11.805 88.499 12.195L87.539 11.13C88.369 10.7 89.089 10.25 89.699 9.78C90.309 9.31 90.789 8.84 91.139 8.37C91.489 7.89 91.694 7.44 91.754 7.02L92.174 7.035C91.874 7.595 91.514 8.025 91.094 8.325C90.684 8.615 90.124 8.76 89.414 8.76ZM89.939 7.53C90.529 7.53 91.009 7.36 91.379 7.02C91.759 6.68 91.949 6.24 91.949 5.7V5.43C91.939 5.06 91.844 4.73 91.664 4.44C91.484 4.15 91.244 3.92 90.944 3.75C90.644 3.58 90.309 3.495 89.939 3.495C89.569 3.495 89.229 3.58 88.919 3.75C88.619 3.92 88.379 4.16 88.199 4.47C88.029 4.77 87.944 5.125 87.944 5.535C87.944 5.935 88.034 6.29 88.214 6.6C88.394 6.9 88.634 7.13 88.934 7.29C89.234 7.45 89.569 7.53 89.939 7.53ZM99.4057 10.695C99.1857 11.215 98.9657 11.73 98.7457 12.24C98.5357 12.76 98.3207 13.285 98.1007 13.815H96.9757C97.1757 13.285 97.3707 12.76 97.5607 12.24C97.7507 11.73 97.9457 11.215 98.1457 10.695H99.4057ZM111.519 12C112.159 11.38 112.769 10.77 113.349 10.17C113.929 9.57 114.449 8.99 114.909 8.43C115.379 7.87 115.749 7.33 116.019 6.81C116.289 6.28 116.424 5.77 116.424 5.28C116.424 4.95 116.369 4.67 116.259 4.44C116.149 4.2 116.004 4.005 115.824 3.855C115.654 3.705 115.459 3.595 115.239 3.525C115.019 3.445 114.794 3.405 114.564 3.405C114.234 3.405 113.954 3.46 113.724 3.57C113.494 3.67 113.304 3.805 113.154 3.975C113.014 4.145 112.909 4.325 112.839 4.515C112.779 4.705 112.749 4.895 112.749 5.085C112.749 5.415 112.799 5.715 112.899 5.985C112.999 6.245 113.144 6.475 113.334 6.675L112.434 7.47C112.204 7.32 112.004 7.11 111.834 6.84C111.674 6.57 111.549 6.28 111.459 5.97C111.379 5.65 111.339 5.365 111.339 5.115C111.339 4.575 111.469 4.07 111.729 3.6C111.999 3.12 112.389 2.735 112.899 2.445C113.419 2.155 114.049 2.01 114.789 2.01C115.419 2.01 115.969 2.155 116.439 2.445C116.909 2.735 117.274 3.12 117.534 3.6C117.794 4.07 117.924 4.59 117.924 5.16C117.924 5.66 117.824 6.15 117.624 6.63C117.424 7.11 117.154 7.585 116.814 8.055C116.484 8.525 116.114 8.99 115.704 9.45C115.304 9.9 114.904 10.355 114.504 10.815L113.874 10.605H118.254V12H111.519ZM126.577 12.045C125.967 12.045 125.407 11.93 124.897 11.7C124.387 11.47 123.947 11.14 123.577 10.71C123.217 10.27 122.937 9.74 122.737 9.12C122.537 8.5 122.437 7.805 122.437 7.035C122.437 6.195 122.532 5.465 122.722 4.845C122.912 4.215 123.187 3.69 123.547 3.27C123.917 2.85 124.357 2.54 124.867 2.34C125.377 2.13 125.947 2.025 126.577 2.025C127.187 2.025 127.742 2.14 128.242 2.37C128.752 2.6 129.187 2.935 129.547 3.375C129.917 3.805 130.202 4.33 130.402 4.95C130.612 5.56 130.717 6.255 130.717 7.035C130.717 7.825 130.612 8.53 130.402 9.15C130.202 9.77 129.917 10.295 129.547 10.725C129.187 11.155 128.752 11.485 128.242 11.715C127.742 11.935 127.187 12.045 126.577 12.045ZM126.562 10.65C127.142 10.65 127.627 10.5 128.017 10.2C128.417 9.89 128.717 9.46 128.917 8.91C129.117 8.36 129.217 7.725 129.217 7.005C129.217 6.285 129.117 5.66 128.917 5.13C128.717 4.59 128.417 4.17 128.017 3.87C127.627 3.57 127.142 3.42 126.562 3.42C125.982 3.42 125.497 3.575 125.107 3.885C124.717 4.185 124.422 4.605 124.222 5.145C124.032 5.685 123.937 6.315 123.937 7.035C123.937 7.745 124.032 8.375 124.222 8.925C124.422 9.465 124.717 9.89 125.107 10.2C125.497 10.5 125.982 10.65 126.562 10.65ZM135.038 12C135.678 11.38 136.288 10.77 136.868 10.17C137.448 9.57 137.968 8.99 138.428 8.43C138.898 7.87 139.268 7.33 139.538 6.81C139.808 6.28 139.943 5.77 139.943 5.28C139.943 4.95 139.888 4.67 139.778 4.44C139.668 4.2 139.523 4.005 139.343 3.855C139.173 3.705 138.978 3.595 138.758 3.525C138.538 3.445 138.313 3.405 138.083 3.405C137.753 3.405 137.473 3.46 137.243 3.57C137.013 3.67 136.823 3.805 136.673 3.975C136.533 4.145 136.428 4.325 136.358 4.515C136.298 4.705 136.268 4.895 136.268 5.085C136.268 5.415 136.318 5.715 136.418 5.985C136.518 6.245 136.663 6.475 136.853 6.675L135.953 7.47C135.723 7.32 135.523 7.11 135.353 6.84C135.193 6.57 135.068 6.28 134.978 5.97C134.898 5.65 134.858 5.365 134.858 5.115C134.858 4.575 134.988 4.07 135.248 3.6C135.518 3.12 135.908 2.735 136.418 2.445C136.938 2.155 137.568 2.01 138.308 2.01C138.938 2.01 139.488 2.155 139.958 2.445C140.428 2.735 140.793 3.12 141.053 3.6C141.313 4.07 141.443 4.59 141.443 5.16C141.443 5.66 141.343 6.15 141.143 6.63C140.943 7.11 140.673 7.585 140.333 8.055C140.003 8.525 139.633 8.99 139.223 9.45C138.823 9.9 138.423 10.355 138.023 10.815L137.393 10.605H141.773V12H135.038ZM146.212 12C146.852 11.38 147.462 10.77 148.042 10.17C148.622 9.57 149.142 8.99 149.602 8.43C150.072 7.87 150.442 7.33 150.712 6.81C150.982 6.28 151.117 5.77 151.117 5.28C151.117 4.95 151.062 4.67 150.952 4.44C150.842 4.2 150.697 4.005 150.517 3.855C150.347 3.705 150.152 3.595 149.932 3.525C149.712 3.445 149.487 3.405 149.257 3.405C148.927 3.405 148.647 3.46 148.417 3.57C148.187 3.67 147.997 3.805 147.847 3.975C147.707 4.145 147.602 4.325 147.532 4.515C147.472 4.705 147.442 4.895 147.442 5.085C147.442 5.415 147.492 5.715 147.592 5.985C147.692 6.245 147.837 6.475 148.027 6.675L147.127 7.47C146.897 7.32 146.697 7.11 146.527 6.84C146.367 6.57 146.242 6.28 146.152 5.97C146.072 5.65 146.032 5.365 146.032 5.115C146.032 4.575 146.162 4.07 146.422 3.6C146.692 3.12 147.082 2.735 147.592 2.445C148.112 2.155 148.742 2.01 149.482 2.01C150.112 2.01 150.662 2.155 151.132 2.445C151.602 2.735 151.967 3.12 152.227 3.6C152.487 4.07 152.617 4.59 152.617 5.16C152.617 5.66 152.517 6.15 152.317 6.63C152.117 7.11 151.847 7.585 151.507 8.055C151.177 8.525 150.807 8.99 150.397 9.45C149.997 9.9 149.597 10.355 149.197 10.815L148.567 10.605H152.947V12H146.212Z" fill="#292E36"/>
</svg>
